<?xml version="1.0" encoding="UTF-8"?>
<svg id="Layer_1" data-name="Layer 1" xmlns="http://www.w3.org/2000/svg" viewBox="0 0 512 512">
  <defs>
    <style>
      .cls-1 {
        fill: #e66b2c;
      }

      .cls-2 {
        fill: #fff;
      }
    </style>
  </defs>
  <rect class="cls-2" x="-7.98" y="-7.98" width="527.97" height="527.97"/>
  <g>
    <path class="cls-1" d="M385.78,353.87s-49.94,0-49.94,0c0-22.76.66-45.52.78-68.28.06-11.4-.41-22.82-.36-34.21.07-19.45-2.13-42.32-26.08-44.25-16.34-1.32-34.84,8.09-44.14,21.44l-2.7,125.3h-49.49c-.24-38.54,4.61-94.66,1.37-121.85-3.11-26.09-36.71-29.43-54.84-17.8-4.21,2.7-16.17,9.74-16.17,15.51,0,0,.09,124.14.09,124.14h-48.45l-.24-197.23,40.32,26.29c33.27-26.41,86.57-31.14,116.2,2.88,32.8-29.42,98.94-37.17,122.68,7.21,15.11,28.26,12.15,114.87,10.97,160.84Z"/>
    <circle class="cls-1" cx="429.89" cy="178.3" r="30.11"/>
  </g>
</svg>